<svg viewBox="0 0 1024 1024" fill="currentColor" version="1.1" xmlns="http://www.w3.org/2000/svg" width="20" height="20">
  <path d="M991.816611 674.909091a69.166545 69.166545 0 0 0-51.665455-23.272727 70.795636 70.795636 0 0 0-27.438545 5.585454A415.674182 415.674182 0 0 1 754.993338 698.181818c-209.594182 0-393.472-184.785455-393.472-395.636363 0-52.363636 38.539636-119.621818 69.515637-173.614546 4.887273-8.610909 9.634909-16.756364 14.103272-24.901818A69.818182 69.818182 0 0 0 384.631156 0a70.842182 70.842182 0 0 0-27.438545 5.585455C161.678429 90.298182 14.362065 307.898182 14.362065 512c0 282.298182 238.824727 512 532.38691 512a522.286545 522.286545 0 0 0 453.957818-268.334545A69.818182 69.818182 0 0 0 991.816611 674.909091zM546.679156 954.181818c-248.785455 0-462.941091-192-462.941091-442.181818 0-186.647273 140.637091-372.829091 300.939637-442.181818-36.817455 65.629091-92.578909 151.970909-92.578909 232.727273 0 250.181818 214.109091 465.454545 462.917818 465.454545a488.331636 488.331636 0 0 0 185.181091-46.545455 453.003636 453.003636 0 0 1-393.565091 232.727273z m103.656728-669.323636l-14.266182 83.781818a34.909091 34.909091 0 0 0 50.362182 36.770909l74.775272-39.563636 74.752 39.563636a36.142545 36.142545 0 0 0 16.174546 3.956364 34.909091 34.909091 0 0 0 34.210909-40.727273l-14.289455-83.781818 60.509091-59.345455a35.025455 35.025455 0 0 0-19.223272-59.578182l-83.61891-12.101818-37.376-76.101818a34.56 34.56 0 0 0-62.254545 0l-37.376 76.101818-83.618909 12.101818a34.909091 34.909091 0 0 0-19.246546 59.578182z m70.423272-64.698182a34.280727 34.280727 0 0 0 26.135273-19.083636l14.312727-29.090909 14.336 29.090909a34.257455 34.257455 0 0 0 26.135273 19.083636l32.046546 4.887273-23.272728 22.574545a35.234909 35.234909 0 0 0-10.007272 30.952727l5.46909 32.116364-28.625454-15.127273a34.490182 34.490182 0 0 0-32.302546 0l-28.695272 15.127273 5.469091-32.116364a35.141818 35.141818 0 0 0-9.984-30.952727l-23.272728-22.574545z"></path>
</svg>