<svg viewBox="0 0 1024 1024" fill="currentColor" version="1.1" xmlns="http://www.w3.org/2000/svg" width="20" height="20">
  <path d="M915.2 476.16h-43.968c-24.704 0-44.736 16-44.736 35.84s20.032 35.904 44.736 35.904H915.2c24.768 0 44.8-16.064 44.8-35.904s-20.032-35.84-44.8-35.84zM512 265.6c-136.704 0-246.464 109.824-246.464 246.4 0 136.704 109.76 246.464 246.464 246.464S758.4 648.704 758.4 512c0-136.576-109.696-246.4-246.4-246.4z m0 425.6c-99.008 0-179.2-80.128-179.2-179.2 0-98.944 80.192-179.2 179.2-179.2S691.2 413.056 691.2 512c0 99.072-80.192 179.2-179.2 179.2zM197.44 512c0-19.84-19.136-35.84-43.904-35.84H108.8c-24.768 0-44.8 16-44.8 35.84s20.032 35.904 44.8 35.904h44.736c24.768 0 43.904-16.064 43.904-35.904zM512 198.464c19.776 0 35.84-20.032 35.84-44.8v-44.8C547.84 84.032 531.84 64 512 64s-35.904 20.032-35.904 44.8v44.8c0 24.768 16.128 44.864 35.904 44.864z m0 627.136c-19.776 0-35.904 20.032-35.904 44.8v44.736C476.096 940.032 492.16 960 512 960s35.84-20.032 35.84-44.8v-44.736c0-24.768-16.064-44.864-35.84-44.864z m329.92-592.832c17.472-17.536 20.288-43.072 6.4-57.024-14.016-14.016-39.488-11.2-57.024 6.336-4.736 4.864-26.496 26.496-31.36 31.36-17.472 17.472-20.288 43.008-6.336 57.024 13.952 14.016 39.488 11.2 57.024-6.336 4.8-4.864 26.496-26.56 31.296-31.36zM213.376 759.936c-4.864 4.8-26.56 26.624-31.36 31.36-17.472 17.472-20.288 42.944-6.4 56.96 14.016 13.952 39.552 11.2 57.024-6.336 4.8-4.736 26.56-26.496 31.36-31.36 17.472-17.472 20.288-43.008 6.336-56.96-14.016-13.952-39.552-11.072-56.96 6.336z m19.328-577.92c-17.536-17.536-43.008-20.352-57.024-6.336-14.08 14.016-11.136 39.488 6.336 57.024 4.864 4.864 26.496 26.56 31.36 31.424 17.536 17.408 43.008 20.288 56.96 6.336 14.016-14.016 11.264-39.488-6.336-57.024-4.736-4.864-26.496-26.56-31.296-31.424z m527.168 628.608c4.864 4.864 26.624 26.624 31.36 31.424 17.536 17.408 43.072 20.224 57.088 6.336 13.952-14.016 11.072-39.552-6.4-57.024-4.864-4.8-26.56-26.496-31.36-31.36-17.472-17.408-43.072-20.288-57.024-6.336-13.952 14.016-11.008 39.488 6.336 56.96z"></path>
</svg>