<svg width="32" height="32" viewBox="0 0 32 32" fill="none" xmlns="http://www.w3.org/2000/svg">
<path d="M15.5215 18.013V13.9871H13.4435C12.3318 13.9871 11.4306 14.8883 11.4306 16.0001C11.4306 17.1075 12.3249 18.0061 13.4308 18.013L13.4435 18.013H15.5215Z" fill="currentColor"/>
<path d="M11.4306 21.0065C11.4306 19.899 12.3249 19.0004 13.4308 18.9936L13.4435 18.9936H15.5215V20.974C15.5215 22.0996 14.5935 23.0194 13.4597 23.0194C12.3438 23.0194 11.4306 22.1141 11.4306 21.0065Z" fill="currentColor"/>
<path d="M18.515 18.013C17.4033 18.013 16.5021 17.1118 16.5021 16.0001C16.5021 14.8883 17.4033 13.9871 18.515 13.9871H18.5801C19.6918 13.9871 20.593 14.8883 20.593 16.0001C20.593 17.1118 19.6918 18.013 18.5801 18.013H18.515Z" fill="currentColor"/>
<path d="M18.5801 13.0065H16.5021V8.98056H18.5801C19.6918 8.98056 20.593 9.88179 20.593 10.9935C20.593 12.1052 19.6918 13.0065 18.5801 13.0065Z" fill="currentColor"/>
<path d="M13.4435 8.98056H15.5215V13.0065H13.4435C12.3318 13.0065 11.4306 12.1052 11.4306 10.9935C11.4306 9.88179 12.3318 8.98056 13.4435 8.98056Z" fill="currentColor"/>
<path fill-rule="evenodd" clip-rule="evenodd" d="M16 0C24.8366 0 32 7.16344 32 16C32 24.8366 24.8366 32 16 32C7.16344 32 0 24.8366 0 16C0 7.16344 7.16344 0 16 0ZM13.4435 8C11.7903 8 10.45 9.34024 10.45 10.9935C10.45 12.0404 10.9874 12.9617 11.8013 13.4968C10.9874 14.0318 10.45 14.9532 10.45 16.0001C10.45 17.0469 10.9873 17.9682 11.8012 18.5033C10.9873 19.0383 10.45 19.9597 10.45 21.0065C10.45 22.6639 11.8105 24 13.4597 24C15.1268 24 16.5021 22.6493 16.5021 20.974V18.2158C17.0337 18.699 17.74 18.9936 18.515 18.9936H18.5801C20.2333 18.9936 21.5736 17.6533 21.5736 16.0001C21.5736 14.9532 21.0362 14.0318 20.2222 13.4968C21.0362 12.9617 21.5736 12.0404 21.5736 10.9935C21.5736 9.34024 20.2333 8 18.5801 8H13.4435Z" fill="currentColor"/>
</svg>
