<svg width="32" height="32" viewBox="0 0 32 32" fill="none" xmlns="http://www.w3.org/2000/svg">
<path fill-rule="evenodd" clip-rule="evenodd" d="M16 32C7.16345 32 0 24.8365 0 16C0 7.16344 7.16345 0 16 0C24.8365 0 32 7.16344 32 16C32 24.8365 24.8365 32 16 32ZM9.70001 11.7C9.79999 11.8 9.89999 12 9.89999 12.2V19.2C10 19.5 9.89999 19.7 9.70001 19.9L8 21.9V22.2H12.7V21.9L11 19.9C10.9 19.7 10.8 19.5 10.8 19.2V13.1L15 22.2H15.4L19 13.1V20.4C19 20.6 19 20.7 18.9 20.8L17.6 22.1V22.4H23.9V22.1L22.7 20.9C22.6 20.8 22.6 20.6 22.6 20.5V11.5C22.5 11.3 22.6 11.2 22.7 11.1L24 9.90001V9.60001H19.6L16.4 17.5L12.8 9.60001H8.20001V9.90001L9.70001 11.7Z" fill="currentColor"/>
</svg>
